# xmcd
#
# Track frame offsets: 
#        150
#        12232
#        26687
#        44417
#        54837
#        64835
#        80017
#        91000
#        106915
#        117792
#        127397
#        149012
#        168912
#        184040
#        197672
#        212742
#
# Disc length: 3056 seconds
#
# Revision: 2
# Processed by: cddbd v1.5.2PL0 Copyright (c) Steve Scherf et al.
# Submitted via: ExactAudioCopyFreeDBPlugin 1.0
#
DISCID=df0bee10
DTITLE=Felix and the BuzzCatz - Meowzaaa
DYEAR=1999
DGENRE=Swing
TTITLE0=Boogie Woogie Rhythm
TTITLE1=Felix Jive
TTITLE2=Chicago By Morning
TTITLE3=Cha Cha D'amore
TTITLE4=5 Months 2 Weeks 2 Days
TTITLE5=Long Way to Memphis
TTITLE6=Choo Choo Ch' Boogie
TTITLE7=Sahara Sunrise [Night Walker]
TTITLE8=A Cat Like Me
TTITLE9=Jitterbug Jitterz
TTITLE10=Snake Eyed Pete
TTITLE11=C'est La Fiesta
TTITLE12=She's The Queen
TTITLE13=Island Black Magic
TTITLE14=Stuck Behind The Eightball Again
TTITLE15=Coney Island Shuffle
EXTD=
EXTT0=
EXTT1=
EXTT2=
EXTT3=
EXTT4=
EXTT5=
EXTT6=
EXTT7=
EXTT8=
EXTT9=
EXTT10=
EXTT11=
EXTT12=
EXTT13=
EXTT14=
EXTT15=
PLAYORDER=
